<svg width="80" height="80" viewBox="0 0 80 80" fill="none" xmlns="http://www.w3.org/2000/svg">
<g clip-path="url(#clip0_4293_45985)">
<rect width="80" height="80" fill="white"/>
<path d="M36.1951 20.9297C35.9952 20.6741 35.7823 20.5332 35.5267 20.5332C35.3432 20.5463 35.1728 20.6053 35.0155 20.7036C33.1247 22.1815 30.5524 28.4501 28.4355 36.7209L30.3132 36.734C34.0095 36.7766 37.8303 36.8192 41.5987 36.8749C40.6025 33.0934 39.6653 29.8526 38.8002 27.2246C37.5321 23.4037 36.6801 21.6834 36.1951 20.9297Z" fill="black"/>
<path d="M40.39 5C20.8469 5 5 20.8469 5 40.39C5 59.9331 20.8469 75.78 40.39 75.78C59.9331 75.78 75.78 59.9331 75.78 40.39C75.78 20.8469 59.9331 5 40.39 5ZM66.5131 39.964C66.4148 40.3605 66.1723 40.7472 65.8315 41.029C65.7889 41.0585 65.7463 41.0847 65.7037 41.1142L65.6611 41.1437L65.5759 41.1994L65.5038 41.242C65.2351 41.3829 64.9336 41.455 64.6223 41.455H47.8514C47.9792 42.0088 48.1365 42.6478 48.2905 43.3326C49.2146 47.2976 51.646 57.8425 54.2445 57.8425H54.3002H54.3297H54.3854C56.404 57.8425 57.4427 54.9163 59.7169 48.5035L59.7464 48.4314C60.1166 47.409 60.5295 46.2425 60.9686 45.0071L61.0833 44.6958C61.2537 44.2829 61.7223 44.0699 62.1352 44.2403C62.4334 44.355 62.6464 44.6532 62.6464 44.9809C62.6464 45.0661 62.6333 45.1382 62.6169 45.207L62.5186 45.5183C62.2761 46.2851 62.0369 47.3238 61.7354 48.533C60.3853 54.1331 58.3373 62.5907 53.1075 62.5907H53.0649C49.6831 62.5612 47.6646 57.1609 46.7962 54.8442C45.1775 50.522 43.9552 45.9312 42.7755 41.4714H27.3711L24.1729 51.7181L24.1303 51.6755C23.6486 52.4291 22.6393 52.6553 21.8856 52.1736C21.417 51.8754 21.1319 51.3642 21.1319 50.8104V50.7547L21.3318 49.5881C21.7709 46.9601 22.3116 44.2141 22.908 41.4583H16.3707L16.3412 41.4288C15.0042 41.2289 14.0802 39.9804 14.28 38.6434C14.4373 37.6047 15.2336 36.7822 16.256 36.5954C16.5116 36.5659 16.7672 36.5528 17.0228 36.5659H17.3341C19.3952 36.5954 21.5841 36.638 23.9992 36.6642C27.3973 22.849 31.3328 15.8267 35.7107 15.8136C40.3998 15.8136 43.8831 26.4863 46.6684 36.9329L46.6816 36.9755C52.3964 37.0902 58.5077 37.2606 64.4323 37.6866L64.6879 37.7161C64.7862 37.7161 64.8714 37.7292 64.9729 37.7456H65.0024L65.0319 37.7587H65.045C66.0576 37.9586 66.7261 38.9547 66.5131 39.964Z" fill="black"/>
</g>
<defs>
<clipPath id="clip0_4293_45985">
<rect width="80" height="80" rx="8" fill="white"/>
</clipPath>
</defs>
</svg>
