<svg width="1200" height="91" viewBox="0 0 1200 91" fill="none" xmlns="http://www.w3.org/2000/svg">
<g clip-path="url(#clip0_8029_30063)">
<path d="M63.2864 1.00977H23.5283V40.7679H-16.2302V80.5264H-55.9883V120.284H63.2864V1.00977Z" fill="#279B6A"/>
<path d="M545.275 1.00977H505.517V40.7679H465.758V80.5264H426V120.284H545.275V1.00977Z" fill="#279B6A"/>
<path d="M1027.26 1.00977H987.505V40.7679H947.746V80.5264H907.988V120.284H1027.26V1.00977Z" fill="#279B6A"/>
<path d="M71.8066 38.5625H113.455C135.213 38.5625 152.852 56.2011 152.852 77.9595V119.608H111.204C89.4453 119.608 71.8066 101.969 71.8066 80.2108V38.5625Z" fill="#2DC082"/>
<path d="M553.795 38.5625H595.443C617.202 38.5625 634.84 56.2011 634.84 77.9595V119.608H593.192C571.434 119.608 553.795 101.969 553.795 80.2108V38.5625Z" fill="#2DC082"/>
<path d="M1035.78 38.5625H1077.43C1099.19 38.5625 1116.83 56.2011 1116.83 77.9595V119.608H1075.18C1053.42 119.608 1035.78 101.969 1035.78 80.2108V38.5625Z" fill="#2DC082"/>
<path d="M207.185 74.4756C207.185 49.0484 186.572 28.4355 161.145 28.4355V74.4756C161.145 99.9028 181.757 120.516 207.185 120.516C232.612 120.516 253.225 99.9028 253.225 74.4756V28.4355C227.797 28.4355 207.185 49.0484 207.185 74.4756Z" fill="#3AA075"/>
<path d="M689.173 74.4756C689.173 49.0484 668.56 28.4355 643.133 28.4355V74.4756C643.133 99.9028 663.746 120.516 689.173 120.516C714.6 120.516 735.213 99.9028 735.213 74.4756V28.4355C709.786 28.4355 689.173 49.0484 689.173 74.4756Z" fill="#3AA075"/>
<path d="M1171.16 74.4756C1171.16 49.0484 1150.55 28.4355 1125.12 28.4355V74.4756C1125.12 99.9028 1145.73 120.516 1171.16 120.516C1196.59 120.516 1217.2 99.9028 1217.2 74.4756V28.4355C1191.77 28.4355 1171.16 49.0484 1171.16 74.4756Z" fill="#3AA075"/>
<path d="M298.801 120.46C318.97 119.987 335.174 103.49 335.174 83.2081C335.174 62.629 318.491 45.9463 297.912 45.9463C277.63 45.9463 261.133 62.1508 260.661 82.3194L260.65 120.47L298.801 120.46Z" fill="#88D7B5"/>
<path d="M780.789 120.46C800.958 119.987 817.162 103.49 817.162 83.2081C817.162 62.629 800.48 45.9463 779.9 45.9463C759.618 45.9463 743.121 62.1508 742.649 82.3194L742.639 120.47L780.789 120.46Z" fill="#88D7B5"/>
<path d="M422.333 57.0003L382.999 17.667L343.666 57.0003H422.333Z" fill="#63B492"/>
<path d="M422.333 96.3333L382.999 57L343.666 96.3333H422.333Z" fill="#63B492"/>
<path d="M904.321 57.0003L864.988 17.667L825.654 57.0003H904.321Z" fill="#63B492"/>
<path d="M904.321 96.3333L864.988 57L825.654 96.3333H904.321Z" fill="#63B492"/>
</g>
<defs>
<clipPath id="clip0_8029_30063">
<rect width="1200" height="91" fill="white"/>
</clipPath>
</defs>
</svg>
