<svg width="80" height="80" viewBox="0 0 80 80" fill="none" xmlns="http://www.w3.org/2000/svg">
<g clip-path="url(#clip0_4293_45933)">
<rect width="80" height="80" fill="white"/>
<g clip-path="url(#clip1_4293_45933)">
<path d="M40 39.5C40 36.9804 41.0009 34.5641 42.7825 32.7825C44.5641 31.0009 46.9804 30 49.5 30C52.0196 30 54.4359 31.0009 56.2175 32.7825C57.9991 34.5641 59 36.9804 59 39.5C59 42.0196 57.9991 44.4359 56.2175 46.2175C54.4359 47.9991 52.0196 49 49.5 49C46.9804 49 44.5641 47.9991 42.7825 46.2175C41.0009 44.4359 40 42.0196 40 39.5V39.5Z" fill="#1ABCFE"/>
<path d="M21 58.5C21 55.9804 22.0009 53.5641 23.7825 51.7825C25.5641 50.0009 27.9804 49 30.5 49H40V58.5C40 61.0196 38.9991 63.4359 37.2175 65.2175C35.4359 66.9991 33.0196 68 30.5 68C27.9804 68 25.5641 66.9991 23.7825 65.2175C22.0009 63.4359 21 61.0196 21 58.5V58.5Z" fill="#0ACF83"/>
<path d="M40 11V30H49.5C52.0196 30 54.4359 28.9991 56.2175 27.2175C57.9991 25.4359 59 23.0196 59 20.5C59 17.9804 57.9991 15.5641 56.2175 13.7825C54.4359 12.0009 52.0196 11 49.5 11H40Z" fill="#FF7262"/>
<path d="M21 20.5C21 23.0196 22.0009 25.4359 23.7825 27.2175C25.5641 28.9991 27.9804 30 30.5 30H40V11H30.5C27.9804 11 25.5641 12.0009 23.7825 13.7825C22.0009 15.5641 21 17.9804 21 20.5V20.5Z" fill="#F24E1E"/>
<path d="M21 39.5C21 42.0196 22.0009 44.4359 23.7825 46.2175C25.5641 47.9991 27.9804 49 30.5 49H40V30H30.5C27.9804 30 25.5641 31.0009 23.7825 32.7825C22.0009 34.5641 21 36.9804 21 39.5V39.5Z" fill="#A259FF"/>
</g>
</g>
<defs>
<clipPath id="clip0_4293_45933">
<rect width="80" height="80" rx="8" fill="white"/>
</clipPath>
<clipPath id="clip1_4293_45933">
<rect width="38" height="57" fill="white" transform="translate(21 11)"/>
</clipPath>
</defs>
</svg>
