<svg width="81" height="80" viewBox="0 0 81 80" fill="none" xmlns="http://www.w3.org/2000/svg">
<g clip-path="url(#clip0_6643_32933)">
<rect x="0.199219" width="80" height="80" fill="white"/>
<g clip-path="url(#clip1_6643_32933)">
<path d="M69.1605 39.2105L38.95 9L8.73953 39.2105C8.26592 39.686 8 40.3299 8 41.001C8 41.6722 8.26592 42.316 8.73953 42.7915L38.95 73.002L69.1605 42.7915C69.6341 42.316 69.9 41.6722 69.9 41.001C69.9 40.3299 69.6341 39.686 69.1605 39.2105ZM38.95 50.4598L29.4882 40.9979L38.95 31.536L48.4119 40.9979L38.95 50.4598Z" fill="#2684FF"/>
<path d="M38.9494 31.5977C35.9734 28.6221 34.2958 24.5898 34.2829 20.3814C34.27 16.173 35.9229 12.1305 38.8806 9.13672L18.1133 29.7729L29.3813 41.0408L38.9494 31.5977Z" fill="url(#paint0_linear_6643_32933)"/>
<path d="M48.4361 40.9727L38.9492 50.4595C40.4296 51.9389 41.6039 53.6955 42.4051 55.6289C43.2063 57.5623 43.6187 59.6347 43.6187 61.7275C43.6187 63.8204 43.2063 65.8927 42.4051 67.8261C41.6039 69.7596 40.4296 71.5162 38.9492 72.9955L59.6978 52.2469L48.4361 40.9727Z" fill="url(#paint1_linear_6643_32933)"/>
</g>
</g>
<defs>
<linearGradient id="paint0_linear_6643_32933" x1="37.262" y1="21.9671" x2="24.0504" y2="35.1787" gradientUnits="userSpaceOnUse">
<stop offset="0.18" stop-color="#0052CC"/>
<stop offset="1" stop-color="#2684FF"/>
</linearGradient>
<linearGradient id="paint1_linear_6643_32933" x1="40.7553" y1="59.9214" x2="53.942" y2="46.7348" gradientUnits="userSpaceOnUse">
<stop offset="0.18" stop-color="#0052CC"/>
<stop offset="1" stop-color="#2684FF"/>
</linearGradient>
<clipPath id="clip0_6643_32933">
<rect x="0.199219" width="80" height="80" rx="8" fill="white"/>
</clipPath>
<clipPath id="clip1_6643_32933">
<rect width="64" height="64" fill="white" transform="translate(8 9)"/>
</clipPath>
</defs>
</svg>
