<svg width="174" height="64" viewBox="0 0 174 64" fill="none" xmlns="http://www.w3.org/2000/svg">
<g clip-path="url(#clip0)">
<path d="M57.0295 36.0542C59.2842 26.5058 53.3714 16.9375 43.823 14.6828C34.2746 12.4281 24.7063 18.3409 22.4516 27.8893C20.1969 37.4377 26.1097 47.006 35.6581 49.2607C45.2065 51.5154 54.7748 45.6026 57.0295 36.0542Z" fill="#5F259F"/>
<path d="M111.815 42.1227V35.6719C111.815 34.084 111.219 33.2901 109.731 33.2901C109.135 33.2901 108.44 33.3893 108.044 33.4886V42.9166C108.044 43.2143 107.746 43.5121 107.448 43.5121H105.165C104.868 43.5121 104.57 43.2143 104.57 42.9166V31.9007C104.57 31.5037 104.868 31.206 105.165 31.1068C106.654 30.6106 108.143 30.3128 109.731 30.3128C113.303 30.3128 115.288 32.1984 115.288 35.6719V43.0159C115.288 43.3136 114.99 43.6113 114.693 43.6113H113.303C112.41 43.6113 111.815 42.9166 111.815 42.1227ZM120.747 38.2522L120.647 39.1454C120.647 40.3363 121.441 41.031 122.731 41.031C123.724 41.031 124.617 40.7333 125.609 40.2371C125.709 40.2371 125.808 40.1378 125.907 40.1378C126.106 40.1378 126.205 40.2371 126.304 40.3363C126.403 40.4356 126.602 40.7333 126.602 40.7333C126.8 41.031 126.999 41.428 126.999 41.7257C126.999 42.2219 126.701 42.7181 126.304 42.9166C125.212 43.5121 123.922 43.8098 122.533 43.8098C120.945 43.8098 119.655 43.4128 118.662 42.6189C117.67 41.7257 117.075 40.5348 117.075 39.0462V35.1757C117.075 32.0992 119.059 30.2136 122.434 30.2136C125.709 30.2136 127.594 32 127.594 35.1757V37.5575C127.594 37.8553 127.297 38.153 126.999 38.153H120.747V38.2522ZM120.647 36.0689H124.419V35.0765C124.419 33.8856 123.724 33.0916 122.533 33.0916C121.342 33.0916 120.647 33.7863 120.647 35.0765V36.0689ZM145.954 38.2522L145.855 39.1454C145.855 40.3363 146.649 41.031 147.939 41.031C148.931 41.031 149.825 40.7333 150.817 40.2371C150.916 40.2371 151.015 40.1378 151.115 40.1378C151.313 40.1378 151.412 40.2371 151.512 40.3363C151.611 40.4356 151.809 40.7333 151.809 40.7333C152.008 41.031 152.206 41.428 152.206 41.7257C152.206 42.2219 151.909 42.7181 151.512 42.9166C150.42 43.5121 149.13 43.8098 147.74 43.8098C146.153 43.8098 144.862 43.4128 143.87 42.6189C142.878 41.7257 142.282 40.5348 142.282 39.0462V35.1757C142.282 32.0992 144.267 30.2136 147.641 30.2136C150.916 30.2136 152.802 32 152.802 35.1757V37.5575C152.802 37.8553 152.504 38.153 152.206 38.153H145.954V38.2522ZM145.855 36.0689H149.626V35.0765C149.626 33.8856 148.931 33.0916 147.74 33.0916C146.55 33.0916 145.855 33.7863 145.855 35.0765V36.0689ZM87.5003 43.6113H88.8897C89.1874 43.6113 89.4852 43.3136 89.4852 43.0159V35.6719C89.4852 32.2977 87.6988 30.3128 84.7215 30.3128C83.8284 30.3128 82.8359 30.5113 82.2405 30.7098V27.0378C82.2405 26.2439 81.5458 25.5492 80.7518 25.5492H79.3624C79.0647 25.5492 78.767 25.8469 78.767 26.1446V43.0159C78.767 43.3136 79.0647 43.6113 79.3624 43.6113H81.645C81.9427 43.6113 82.2405 43.3136 82.2405 43.0159V33.6871C82.7367 33.4886 83.4314 33.3893 83.9276 33.3893C85.4162 33.3893 86.0117 34.084 86.0117 35.7712V42.2219C86.1109 42.9166 86.7064 43.6113 87.5003 43.6113ZM102.486 35.275V38.9469C102.486 42.0234 100.402 43.909 96.9284 43.909C93.5541 43.909 91.3708 42.0234 91.3708 38.9469V35.275C91.3708 32.1984 93.4549 30.3128 96.9284 30.3128C100.402 30.3128 102.486 32.1984 102.486 35.275ZM99.0124 35.275C99.0124 34.084 98.3177 33.2901 97.0276 33.2901C95.7374 33.2901 95.0427 33.9848 95.0427 35.275V38.9469C95.0427 40.1378 95.7374 40.8325 97.0276 40.8325C98.3177 40.8325 99.0124 40.1378 99.0124 38.9469V35.275ZM76.8814 33.5878C76.8814 36.7636 74.4996 38.9469 71.3238 38.9469C70.5299 38.9469 69.8352 38.8477 69.1405 38.55V43.0159C69.1405 43.3136 68.8428 43.6113 68.545 43.6113H66.2624C65.9647 43.6113 65.667 43.3136 65.667 43.0159V27.2363C65.667 26.8393 65.9647 26.5416 66.2624 26.4424C67.7511 25.9462 69.2397 25.6484 70.8276 25.6484C74.4003 25.6484 76.8814 27.8318 76.8814 31.206V33.5878ZM73.3087 31.0075C73.3087 29.4196 72.217 28.6257 70.7284 28.6257C69.8352 28.6257 69.2397 28.9234 69.2397 28.9234V35.4734C69.8352 35.7712 70.1329 35.8704 70.8276 35.8704C72.3162 35.8704 73.4079 34.9772 73.4079 33.4886V31.0075H73.3087ZM140.992 33.5878C140.992 36.7636 138.61 38.9469 135.434 38.9469C134.64 38.9469 133.946 38.8477 133.251 38.55V43.0159C133.251 43.3136 132.953 43.6113 132.656 43.6113H130.373C130.075 43.6113 129.778 43.3136 129.778 43.0159V27.2363C129.778 26.8393 130.075 26.5416 130.373 26.4424C131.862 25.9462 133.35 25.6484 134.938 25.6484C138.511 25.6484 140.992 27.8318 140.992 31.206V33.5878ZM137.419 31.0075C137.419 29.4196 136.328 28.6257 134.839 28.6257C133.946 28.6257 133.35 28.9234 133.35 28.9234V35.4734C133.946 35.7712 134.244 35.8704 134.938 35.8704C136.427 35.8704 137.519 34.9772 137.519 33.4886V31.0075H137.419Z" fill="#5F259F"/>
<path d="M47.8029 27.3356C47.8029 26.6409 47.2074 26.0454 46.5127 26.0454H44.1309L38.6725 19.7932C38.1763 19.1977 37.3824 18.9992 36.5885 19.1977L34.7029 19.7932C34.4051 19.8924 34.3059 20.2894 34.5044 20.4879L40.4589 26.1447H31.4279C31.1301 26.1447 30.9316 26.3432 30.9316 26.6409V27.6333C30.9316 28.328 31.5271 28.9235 32.2218 28.9235H33.6112V33.6871C33.6112 37.2598 35.4968 39.3439 38.6725 39.3439C39.665 39.3439 40.4589 39.2447 41.4513 38.8477V42.0235C41.4513 42.9167 42.146 43.6114 43.0392 43.6114H44.4286C44.7263 43.6114 45.0241 43.3136 45.0241 43.0159V28.8242H47.3066C47.6044 28.8242 47.8029 28.6258 47.8029 28.328V27.3356ZM41.4513 35.8704C40.8559 36.1682 40.0619 36.2674 39.4665 36.2674C37.8786 36.2674 37.0847 35.4735 37.0847 33.6871V28.9235H41.4513V35.8704Z" fill="white"/>
</g>
<defs>
<clipPath id="clip0">
<rect width="131" height="55.7806" fill="white" transform="translate(22 4.10962)"/>
</clipPath>
</defs>
</svg>
