<svg width="81" height="80" viewBox="0 0 81 80" fill="none" xmlns="http://www.w3.org/2000/svg">
<g clip-path="url(#clip0_6693_47062)">
<rect x="0.798828" width="80" height="80" fill="white"/>
<g clip-path="url(#clip1_6693_47062)">
<path d="M34.0382 46.2955C33.193 50.8938 32.0781 54.2354 30.6943 56.32C29.6161 57.9262 28.4349 58.7293 27.1487 58.7293C26.8058 58.7293 26.383 58.6258 25.8813 58.42V57.3115C26.1264 57.3475 26.414 57.3667 26.7448 57.3667C27.3448 57.3667 27.8284 57.2004 28.1963 56.8686C28.6369 56.4642 28.8574 56.0096 28.8574 55.5059C28.8574 55.1619 28.6854 54.4559 28.343 53.388L26.0651 46.2955H28.1041L29.739 51.6C30.1063 52.8044 30.2595 53.6451 30.1982 54.1243C31.0924 51.7297 31.717 49.12 32.0724 46.2955H34.0381M25.0348 55.4693H22.9592C22.8862 51.9566 22.6839 48.6536 22.3532 45.5595H22.3349L19.1747 55.4693H17.5944L14.4534 45.5595H14.4349C14.2018 48.531 14.0552 51.834 13.994 55.4693H12.1016C12.2239 51.0482 12.5299 46.9038 13.0197 43.0352H15.5923L18.5868 52.1714H18.6051L21.618 43.0352H24.0795C24.6185 47.566 24.9368 51.7117 25.0345 55.4693" fill="#00758F"/>
<path d="M61.6676 55.4702H55.7709V43.0361H57.7551V53.9407H61.6676V55.4702M46.8417 52.9828C46.3394 52.1723 46.0878 50.8717 46.0878 49.0782C46.0878 45.9472 47.0373 44.3807 48.9355 44.3807C49.9279 44.3807 50.6563 44.7554 51.1221 45.504C51.6237 46.3149 51.8754 47.6043 51.8754 49.3726C51.8754 52.5287 50.9258 54.1073 49.0277 54.1073C48.0356 54.1073 47.3069 53.7331 46.8417 52.983M54.2268 55.7702L51.9474 54.6431C52.1504 54.4762 52.3431 54.2962 52.5176 54.0878C53.4854 52.947 53.9697 51.2585 53.9697 49.0231C53.9697 44.9095 52.3591 42.8516 49.1381 42.8516C47.5582 42.8516 46.3269 43.3732 45.4453 44.4179C44.4771 45.5601 43.9937 47.2422 43.9937 49.465C43.9937 51.6506 44.4221 53.254 45.2794 54.2726C46.0606 55.1932 47.2419 55.6541 48.8234 55.6541C49.4135 55.6541 49.9548 55.5813 50.4469 55.4356L53.4153 57.1676L54.2246 55.77M43.1313 52.0237C43.1313 53.0782 42.7448 53.9439 41.9746 54.6212C41.2037 55.2956 40.168 55.6337 38.8711 55.6337C37.6581 55.6337 36.4825 55.2446 35.3438 54.4727L35.8765 53.4046C36.8564 53.8957 37.7432 54.141 38.5394 54.141C39.2863 54.141 39.8709 53.9744 40.2938 53.6451C40.7158 53.3134 40.9687 52.8509 40.9687 52.2642C40.9687 51.5259 40.4552 50.8948 39.513 50.3654C38.6432 49.8868 36.9048 48.8875 36.9048 48.8875C35.9629 48.1986 35.4907 47.4595 35.4907 46.2416C35.4907 45.2343 35.8429 44.4202 36.5462 43.8008C37.2512 43.1801 38.1607 42.8697 39.2745 42.8697C40.4257 42.8697 41.4726 43.1778 42.4154 43.7917L41.9365 44.8588C41.1297 44.5158 40.3342 44.3437 39.5498 44.3437C38.9134 44.3437 38.4229 44.4969 38.081 44.8051C37.7371 45.1107 37.5246 45.5039 37.5246 45.9832C37.5246 46.7196 38.0493 47.3583 39.018 47.898C39.8988 48.3768 41.6797 49.3954 41.6797 49.3954C42.6485 50.083 43.1313 50.8162 43.1313 52.0237" fill="#F29111"/>
<path d="M63.0817 55.4688H63.4105V54.2037H63.8407V53.9453H62.6348V54.2037H63.0817V55.4688ZM65.5836 55.4688H65.8935V53.9453H65.4274L65.048 54.9838L64.635 53.9453H64.1859V55.4688H64.4791V54.3093H64.4958L64.9283 55.4688H65.1517L65.5836 54.3093V55.4688" fill="#F29111"/>
<path d="M45.1774 22.1018C44.6531 22.094 44.1959 22.292 43.9598 22.8722C43.5551 23.8493 44.5592 24.8104 44.904 25.3063C45.1585 25.6514 45.4884 26.0427 45.6673 26.4327C45.7724 26.6882 45.8027 26.9591 45.908 27.2291C46.1475 27.89 46.3717 28.6265 46.6871 29.2428C46.8513 29.5583 47.0309 29.8891 47.2406 30.1732C47.3616 30.3394 47.5707 30.4135 47.6158 30.6848C47.4068 30.9849 47.3904 31.4358 47.2707 31.8117C46.7316 33.5094 46.9409 35.6126 47.7054 36.8594C47.9446 37.2349 48.5148 38.0613 49.279 37.7451C49.9532 37.4751 49.8033 36.6188 49.998 35.8681C50.0428 35.6865 50.0128 35.5674 50.1024 35.4474V35.4777C50.3121 35.8978 50.5225 36.3025 50.7172 36.7246C51.1824 37.46 51.9905 38.2263 52.6654 38.7366C53.024 39.0081 53.309 39.4731 53.7585 39.6389V39.5934H53.729C53.6387 39.4586 53.5042 39.3982 53.3841 39.2935C53.1145 39.0229 52.8157 38.6921 52.605 38.3918C51.9759 37.5508 51.4209 36.6189 50.9275 35.6575C50.6871 35.1906 50.4777 34.6804 50.2827 34.2149C50.1931 34.0355 50.193 33.7643 50.0429 33.6743C49.8175 34.0045 49.4887 34.2902 49.3242 34.6946C49.0393 35.3414 49.0094 36.1374 48.9038 36.9641C48.8442 36.9798 48.8743 36.9643 48.8442 36.9942C48.3653 36.8741 48.2005 36.3783 48.0202 35.959C47.5708 34.8909 47.4952 33.1783 47.8854 31.9462C47.9898 31.6313 48.4406 30.6398 48.2601 30.3394C48.1695 30.0527 47.87 29.8889 47.7054 29.6626C47.5111 29.3772 47.3002 29.0173 47.1667 28.7011C46.8069 27.8601 46.626 26.9283 46.2377 26.0873C46.0578 25.696 45.7423 25.2904 45.4884 24.9306C45.2032 24.5248 44.8889 24.2395 44.6639 23.7593C44.5896 23.5936 44.4846 23.3229 44.604 23.1432C44.6335 23.0228 44.6943 22.9776 44.8144 22.9474C45.0081 22.7821 45.5632 22.992 45.7575 23.0822C46.3123 23.3069 46.7767 23.5183 47.2406 23.8332C47.4506 23.9837 47.6755 24.2693 47.9447 24.345H48.2601C48.7393 24.4494 49.2791 24.3741 49.7289 24.5099C50.5225 24.7651 51.2416 25.1407 51.8863 25.5464C53.8485 26.7935 55.4666 28.5668 56.5599 30.6848C56.7402 31.0298 56.8157 31.3455 56.9803 31.7053C57.295 32.4429 57.6851 33.1943 57.9992 33.9147C58.3136 34.6209 58.6137 35.3414 59.0639 35.9282C59.288 36.2431 60.1873 36.4084 60.5919 36.5738C60.891 36.7086 61.3561 36.8289 61.626 36.9939C62.1354 37.3089 62.6438 37.6699 63.124 38.016C63.3632 38.1964 64.1124 38.5716 64.1576 38.8725L64.1578 38.8728C62.9586 38.8427 62.0297 38.9627 61.2508 39.2935C61.0261 39.3835 60.6668 39.3834 60.6361 39.6689C60.7568 39.7889 60.7713 39.9842 60.877 40.1502C61.0563 40.4507 61.3703 40.8556 61.6555 41.0665C61.9702 41.307 62.2848 41.5465 62.6149 41.7568C63.1988 42.1189 63.8583 42.3284 64.4269 42.6891C64.7576 42.8991 65.0861 43.1694 65.4168 43.3953C65.5811 43.5155 65.6851 43.7111 65.8957 43.7854V43.7397C65.7901 43.6049 65.7608 43.4097 65.6564 43.2586C65.5069 43.1096 65.3567 42.9735 65.2065 42.8239C64.7718 42.2381 64.2316 41.7276 63.6487 41.3069C63.1688 40.9755 62.1194 40.5247 61.9254 39.9705C61.9254 39.9705 61.9095 39.9547 61.8948 39.9399C62.2246 39.9094 62.615 39.789 62.9294 39.6979C63.4381 39.5631 63.9025 39.5934 64.4269 39.4586C64.667 39.3981 64.9068 39.3227 65.1475 39.2488V39.1126C64.8763 38.8428 64.6826 38.4815 64.3979 38.2264C63.6344 37.5656 62.7943 36.92 61.9254 36.3783C61.4602 36.0778 60.8608 35.8835 60.3662 35.6274C60.1872 35.5371 59.8879 35.4927 59.7826 35.3416C59.5127 35.0112 59.3621 34.5761 59.1678 34.1849C58.7337 33.3595 58.3136 32.4433 57.9397 31.5705C57.6701 30.985 57.5052 30.3995 57.1755 29.8583C55.6314 27.3038 53.9538 25.7572 51.3766 24.2395C50.8221 23.9236 50.1629 23.7887 49.4593 23.6234C49.0841 23.6076 48.7099 23.5783 48.3353 23.5636C48.0952 23.4579 47.855 23.1722 47.6456 23.037C47.1116 22.6992 46.0512 22.1148 45.1774 22.1018V22.1018ZM48.874 25.8155C48.6198 25.8155 48.4404 25.8464 48.2595 25.891V25.921H48.2888C48.4098 26.1608 48.6199 26.3275 48.7684 26.5374C48.8891 26.7779 48.9941 27.0173 49.1139 27.258C49.1286 27.2433 49.1428 27.2277 49.1428 27.2277C49.3541 27.0781 49.459 26.8379 49.459 26.4768C49.3684 26.3709 49.3543 26.2665 49.2787 26.1609C49.1891 26.011 48.9941 25.9358 48.874 25.8155V25.8155Z" fill="#00758F"/>
</g>
</g>
<defs>
<clipPath id="clip0_6693_47062">
<rect x="0.798828" width="80" height="80" rx="8" fill="white"/>
</clipPath>
<clipPath id="clip1_6693_47062">
<rect width="65" height="38" fill="white" transform="translate(7.99805 21)"/>
</clipPath>
</defs>
</svg>
