<svg width="80" height="80" viewBox="0 0 80 80" fill="none" xmlns="http://www.w3.org/2000/svg">
<g clip-path="url(#clip0_4293_45916)">
<rect width="80" height="80" fill="white"/>
<path fill-rule="evenodd" clip-rule="evenodd" d="M32.295 23.0031C31.801 22.509 31 22.509 30.5058 23.0031L14.4035 39.1054C13.9094 39.5994 13.9094 40.4006 14.4035 40.8946L30.5058 56.9968C31 57.491 31.801 57.491 32.295 56.9968L48.3974 40.8946C48.8914 40.4006 48.8914 39.5994 48.3974 39.1054L32.295 23.0031ZM33.1896 16.7411C32.2014 15.753 30.5994 15.753 29.6114 16.7411L8.14148 38.2108C7.15336 39.199 7.15336 40.801 8.14148 41.7892L29.6114 63.259C30.5994 64.247 32.2014 64.247 33.1896 63.259L54.6594 41.7892C55.6474 40.801 55.6474 39.199 54.6594 38.2108L33.1896 16.7411Z" fill="#9187F6"/>
<mask id="mask0_4293_45916" style="mask-type:alpha" maskUnits="userSpaceOnUse" x="7" y="16" width="49" height="48">
<path fill-rule="evenodd" clip-rule="evenodd" d="M32.295 23.0031C31.801 22.509 31 22.509 30.5058 23.0031L14.4035 39.1054C13.9094 39.5994 13.9094 40.4006 14.4035 40.8946L30.5058 56.9968C31 57.491 31.801 57.491 32.295 56.9968L48.3974 40.8946C48.8914 40.4006 48.8914 39.5994 48.3974 39.1054L32.295 23.0031ZM33.1896 16.7411C32.2014 15.753 30.5994 15.753 29.6114 16.7411L8.14148 38.2108C7.15336 39.199 7.15336 40.801 8.14148 41.7892L29.6114 63.259C30.5994 64.247 32.2014 64.247 33.1896 63.259L54.6594 41.7892C55.6474 40.801 55.6474 39.199 54.6594 38.2108L33.1896 16.7411Z" fill="white"/>
</mask>
<g mask="url(#mask0_4293_45916)">
<g filter="url(#filter0_d_4293_45916)">
<path d="M47.6113 16.7411C48.5993 15.753 50.2014 15.753 51.1896 16.7411L72.6594 38.2108C73.6474 39.199 73.6474 40.801 72.6594 41.7892L51.1896 63.259C50.2014 64.247 48.5993 64.247 47.6113 63.259L26.1415 41.7892C25.1534 40.801 25.1534 39.199 26.1415 38.2108L47.6113 16.7411Z" fill="black" fill-opacity="0.01"/>
</g>
</g>
<path d="M47.6113 16.7411C48.5993 15.753 50.2014 15.753 51.1896 16.7411L72.6594 38.2108C73.6474 39.199 73.6474 40.801 72.6594 41.7892L51.1896 63.259C50.2014 64.247 48.5993 64.247 47.6113 63.259L26.1415 41.7892C25.1534 40.801 25.1534 39.199 26.1415 38.2108L47.6113 16.7411Z" fill="#8313DD"/>
</g>
<defs>
<filter id="filter0_d_4293_45916" x="19.6147" y="10.2143" width="59.5714" height="59.5714" filterUnits="userSpaceOnUse" color-interpolation-filters="sRGB">
<feFlood flood-opacity="0" result="BackgroundImageFix"/>
<feColorMatrix in="SourceAlpha" type="matrix" values="0 0 0 0 0 0 0 0 0 0 0 0 0 0 0 0 0 0 127 0" result="hardAlpha"/>
<feOffset/>
<feGaussianBlur stdDeviation="2.89286"/>
<feColorMatrix type="matrix" values="0 0 0 0 0 0 0 0 0 0 0 0 0 0 0 0 0 0 0.6 0"/>
<feBlend mode="normal" in2="BackgroundImageFix" result="effect1_dropShadow_4293_45916"/>
<feBlend mode="normal" in="SourceGraphic" in2="effect1_dropShadow_4293_45916" result="shape"/>
</filter>
<clipPath id="clip0_4293_45916">
<rect width="80" height="80" rx="8" fill="white"/>
</clipPath>
</defs>
</svg>
